<?xml version="1.0"?>
<svg xmlns="http://www.w3.org/2000/svg" id="Layer_1" data-name="Layer 1" viewBox="0 0 512 512" width="512" height="512"><title>Automobile</title><path d="M87.226,498H424.774c4.418,0,8.226-3.163,8.226-7.582V449.343A8.494,8.494,0,0,0,424.774,441H413V408.343A8.494,8.494,0,0,0,404.774,400H368V371.921A7.6,7.6,0,0,0,360.4,364H284.271L328.36,161.5l2.6.546a8.052,8.052,0,0,0,9.048-4.663L352.947,127.4a63.613,63.613,0,0,0,27.8-39.976,61.09,61.09,0,0,0-119.488-25.5,62,62,0,0,0,8.766,47.427l-.7,32.646a8,8,0,0,0,6.3,7.99l2.6.6L231.779,364H151.6a7.6,7.6,0,0,0-7.6,7.921V400H107.226A8.494,8.494,0,0,0,99,408.343V441H87.226A8.494,8.494,0,0,0,79,449.343v41.075C79,494.837,82.808,498,87.226,498ZM276.891,65.319a45.162,45.162,0,0,1,19.747-28.465,44.982,44.982,0,0,1,68.473,47.16c-2.843,13.052-11.214,24.585-22.393,30.848a8.007,8.007,0,0,0-3.435,3.81L327.927,145l-42.469-9.249.617-28.661a8,8,0,0,0-1.539-4.894A46.542,46.542,0,0,1,276.891,65.319Zm16.959,88.669,18.877,4.131L267.9,364H248.153ZM160,380H352v20H160Zm-45,36H397v25H115ZM95,457H417v25H95Z"/></svg>
