<?xml version="1.0"?>
<svg xmlns="http://www.w3.org/2000/svg" id="Layer_1" data-name="Layer 1" viewBox="0 0 512 512" width="512" height="512"><title>Car Lift</title><path d="M169.531,153h4.427a22.5,22.5,0,1,0,0-45h-4.427a22.5,22.5,0,1,0,0,45Zm0-29h4.427a6.505,6.505,0,1,1,0,13h-4.427a6.505,6.505,0,1,1,0-13Z"/><path d="M338.042,153h4.427a22.5,22.5,0,1,0,0-45h-4.427a22.5,22.5,0,1,0,0,45Zm0-29h4.427a6.505,6.505,0,1,1,0,13h-4.427a6.505,6.505,0,1,1,0-13Z"/><path d="M303,116a8,8,0,0,0-8-8H217a8,8,0,0,0-8,8v29a8,8,0,0,0,8,8h78a8,8,0,0,0,8-8Zm-78,8h62v13H225Z"/><path d="M93.5,506h325c4.418,0,7.5-3.708,7.5-8.126v-43c0-4.419-3.082-7.874-7.5-7.874H371.767L279.93,357l91.837-90H418.5c4.418,0,7.5-3.708,7.5-8.126v-43c0-4.419-3.082-7.874-7.5-7.874H392V108.969a35.38,35.38,0,0,0-10.941-25.348l-5.489-5.8L355.277,23.079A26.284,26.284,0,0,0,330.792,6H184.823A26.243,26.243,0,0,0,160.37,23.079L140.4,77.02l-8.018,7.354A35.212,35.212,0,0,0,120,111.04V208H93.5c-4.418,0-8.5,3.455-8.5,7.874v43c0,4.418,4.082,8.126,8.5,8.126h46.733l91.837,90-91.837,90H93.5c-4.418,0-8.5,3.455-8.5,7.874v43C85,502.292,89.082,506,93.5,506Zm255.407-59h-2.141L267.43,369.187l1.07-1.017ZM256,380.451,323.907,447H188.093ZM341,182h24.667A26.785,26.785,0,0,0,376,180.081V201H341ZM175.374,28.832A10.357,10.357,0,0,1,184.823,22H330.792a10.359,10.359,0,0,1,9.45,6.832L356.883,74H158.732ZM136,111.04a19.206,19.206,0,0,1,6.876-14.576c.093-.079.247.034.336-.049L150.381,90H364.627l4.779,4.914c.112.121.356.141.476.254a19.1,19.1,0,0,1,6.118,13.8v47.062A10.218,10.218,0,0,1,365.667,166H146.333A10.218,10.218,0,0,1,136,156.031V111.04Zm0,69.041A26.785,26.785,0,0,0,146.333,182H171v19H136ZM187,182H325v26H187Zm-86,42H410v27H101ZM256,333.549,188.093,267H323.907ZM163.093,267h2.14l79.337,77.687-1.07,1.08Zm183.674,0h2.14L165.233,447h-2.14ZM101,463H410v27H101Z"/></svg>
