<?xml version="1.0"?>
<svg xmlns="http://www.w3.org/2000/svg" id="Layer_1" data-name="Layer 1" viewBox="0 0 512 512" width="512" height="512"><title>Car</title><path d="M456.608,220.686,434,210.356l-34.925-55.675A52.425,52.425,0,0,0,354.23,130H206.878a53.114,53.114,0,0,0-42.148,20.7l-45.017,59.024L66.059,224.405A70.906,70.906,0,0,0,14,292.851v39.895c0,4.419,3.127,8.254,7.545,8.254h41.71a53.529,53.529,0,0,0,104.368,0H338.754a53.529,53.529,0,0,0,104.368,0h47.333c4.418,0,7.545-3.835,7.545-8.254V285.322A70.94,70.94,0,0,0,456.608,220.686Zm-71.039-57.511L414.382,209h-83.96l-4.751-63H354.23A36.608,36.608,0,0,1,385.569,163.175ZM314.378,209H241.555l4.811-63h63.26ZM177.459,160.4A37.02,37.02,0,0,1,206.878,146H230.32l-4.811,63h-85.2Zm-62.02,205.953a37.542,37.542,0,1,1,37.542-37.541A37.584,37.584,0,0,1,115.439,366.352Zm275.5,0a37.542,37.542,0,1,1,37.542-37.541A37.584,37.584,0,0,1,390.938,366.352ZM482,325H444.31a53.525,53.525,0,0,0-106.743,0H168.811a53.525,53.525,0,0,0-106.743,0H30V292.851A54.921,54.921,0,0,1,70.276,239.8L124.2,225H427.661l22.326,10.252A54.907,54.907,0,0,1,482,285.322Z"/><path d="M115.439,299.338a29.473,29.473,0,1,0,29.473,29.473A29.505,29.505,0,0,0,115.439,299.338Zm0,42.945a13.473,13.473,0,1,1,13.473-13.472A13.487,13.487,0,0,1,115.439,342.283Z"/><path d="M390.938,297.263a31.547,31.547,0,1,0,31.547,31.548A31.583,31.583,0,0,0,390.938,297.263Zm0,47.094a15.547,15.547,0,1,1,15.547-15.546A15.564,15.564,0,0,1,390.938,344.357Z"/></svg>
