<?xml version="1.0"?>
<svg xmlns="http://www.w3.org/2000/svg" id="Layer_1" data-name="Layer 1" viewBox="0 0 512 512" width="512" height="512"><title>Car2</title><path d="M460.078,199.819l-35.9-96.919A39.837,39.837,0,0,0,386.986,77H131.346a39.837,39.837,0,0,0-37.188,25.9L58.679,198.661l-15.1,13.916A55.534,55.534,0,0,0,24,254.77V426.958A8.278,8.278,0,0,0,32.278,435h89.7A8.055,8.055,0,0,0,130,426.958V373H382v53.958A8.055,8.055,0,0,0,390.022,435h89.7A8.278,8.278,0,0,0,488,426.958V251.143a55.842,55.842,0,0,0-17.341-40.164ZM109.161,108.342A23.666,23.666,0,0,1,131.346,93h255.64a23.667,23.667,0,0,1,22.185,15.342L441.316,195H77.015ZM114,419H40V373h74Zm284,0V373h74v46Zm74-93.351V357H40V254.77a39.556,39.556,0,0,1,14.079-30.111c.093-.078.253-.277.342-.359L68.665,211H448.848L459,221.966c.113.121.368.3.488.41A39.909,39.909,0,0,1,472,251.143Z"/><path d="M112.318,255h-7.753a34,34,0,0,0,0,68h7.753a34,34,0,0,0,0-68Zm0,52h-7.753a18,18,0,0,1,0-36h7.753a18,18,0,0,1,0,36Z"/><path d="M407.435,255h-7.753a34,34,0,0,0,0,68h7.753a34,34,0,0,0,0-68Zm0,52h-7.753a18,18,0,0,1,0-36h7.753a18,18,0,0,1,0,36Z"/><path d="M333,264a8,8,0,0,0-8-8H188a8,8,0,0,0-8,8v51a8,8,0,0,0,8,8H325a8,8,0,0,0,8-8Zm-17,43H196V272H316Z"/></svg>
