<?xml version="1.0"?>
<svg xmlns="http://www.w3.org/2000/svg" id="Layer_1" data-name="Layer 1" viewBox="0 0 512 512" width="512" height="512"><title>Care</title><path d="M333.452,222H385.29a7.409,7.409,0,0,0,7.71-7.582v-101.6a35.452,35.452,0,0,0-10.772-25.587L376.8,81.343,356.319,26.072A26.274,26.274,0,0,0,331.7,9H183.962A26.322,26.322,0,0,0,159.3,26.071L139.08,80.609l-7.86,7.422A35.2,35.2,0,0,0,119,114.91v99.508A7.409,7.409,0,0,0,126.71,222h51.838c4.418,0,8.452-3.163,8.452-7.582V187H325v27.418C325,218.837,329.034,222,333.452,222ZM341,206V187h36v19ZM174.308,31.566A10.2,10.2,0,0,1,183.962,25H331.7a10.2,10.2,0,0,1,9.655,6.567L358.243,77H157.417ZM135,114.91a19.275,19.275,0,0,1,6.719-14.826c.093-.079.111-.223.2-.306L149.066,93H365.983l4.865,5.264c.113.12.084.269.2.382A19.457,19.457,0,0,1,377,112.814V171H135V114.91ZM171,206H135V187h36Z"/><path d="M168.485,158h4.481a23,23,0,0,0,0-46h-4.481a23,23,0,0,0,0,46Zm0-30h4.481a7,7,0,0,1,0,14h-4.481a7,7,0,0,1,0-14Z"/><path d="M339.034,158h4.481a23,23,0,0,0,0-46h-4.481a23,23,0,0,0,0,46Zm0-30h4.481a7,7,0,0,1,0,14h-4.481a7,7,0,0,1,0-14Z"/><path d="M304,120a8,8,0,0,0-8-8H217a8,8,0,0,0-8,8v29a8,8,0,0,0,8,8h79a8,8,0,0,0,8-8Zm-79,8h62v13H225Z"/><path d="M471.089,133.22a8.006,8.006,0,0,0-8.68-6.709,36.046,36.046,0,0,0-32.543,37.636l1.44,58.937a45.259,45.259,0,0,0-36.369,25.552L373.4,293.857a51.834,51.834,0,0,1-14.292,18.05l-4.475,3.589a90.922,90.922,0,0,0-34.119,75.234l-8.8-4.189a8,8,0,0,0-10.663,3.782l-23.616,49.588a8,8,0,0,0,3.782,10.662L390.037,502.4a7.993,7.993,0,0,0,10.663-3.782l23.616-49.588a8,8,0,0,0-3.782-10.662l-2.9-1.379-2.932-16.711a23.414,23.414,0,0,1,5.349-16.374l56.352-68.191q.171-.206.327-.423a93.514,93.514,0,0,0,17.479-55.674,7.918,7.918,0,0,0-.1-1.13ZM389.694,484.513l-94.371-44.945,16.737-35.142,94.371,44.945ZM463.9,325.73l-56.177,67.98a39.347,39.347,0,0,0-8.946,28.126c.02.264.052.526.1.786l1.039,5.922L337.4,398.772a75.024,75.024,0,0,1,27.243-70.793l4.475-3.589a67.925,67.925,0,0,0,18.728-23.653l21.537-45.221a29.3,29.3,0,0,1,31.271-16.261l-31.484,66.106a8,8,0,1,0,14.445,6.88l35.4-74.333a8,8,0,0,0-3.783-10.662,45.256,45.256,0,0,0-7.891-2.886l-1.483-60.7c0-.07,0-.139-.008-.208a20.071,20.071,0,0,1,10.838-18.875l21.532,135.838A77.417,77.417,0,0,1,463.9,325.73Z"/><path d="M210.946,390.323a8,8,0,0,0-10.663-3.782l-8.8,4.189A90.924,90.924,0,0,0,157.368,315.5l-4.477-3.59A51.831,51.831,0,0,1,138.6,293.857l-21.537-45.221a45.256,45.256,0,0,0-36.369-25.552l1.44-58.937a36.046,36.046,0,0,0-32.543-37.636,8,8,0,0,0-8.68,6.709L17.885,278.484a7.918,7.918,0,0,0-.1,1.13,93.514,93.514,0,0,0,17.479,55.674q.156.217.327.423L91.945,403.9a23.414,23.414,0,0,1,5.349,16.374l-2.932,16.711-2.9,1.379a8,8,0,0,0-3.782,10.662L111.3,498.616a7.993,7.993,0,0,0,10.663,3.782L230.78,450.573a8,8,0,0,0,3.782-10.662ZM104.278,393.71,48.1,325.73a77.417,77.417,0,0,1-14.323-45.317L55.311,144.575A20.071,20.071,0,0,1,66.149,163.45c0,.069-.006.138-.008.208l-1.483,60.7a45.256,45.256,0,0,0-7.891,2.886,8,8,0,0,0-3.783,10.662l35.4,74.333a8,8,0,1,0,14.445-6.88L71.347,239.255a29.294,29.294,0,0,1,31.271,16.261l21.537,45.221a67.921,67.921,0,0,0,18.727,23.652l4.477,3.59A75.025,75.025,0,0,1,174.6,398.772l-62.513,29.772,1.039-5.922c.046-.26.078-.522.1-.786A39.344,39.344,0,0,0,104.278,393.71Zm18.028,90.8-16.737-35.142,94.371-44.945,16.737,35.142Z"/></svg>
