<?xml version="1.0"?>
<svg xmlns="http://www.w3.org/2000/svg" id="Layer_1" data-name="Layer 1" viewBox="0 0 512 512" width="512" height="512"><title>Cgarge</title><path d="M87.175,344h-6.3a29,29,0,1,0,0,58h6.3a29,29,0,1,0,0-58Zm0,42h-6.3a13,13,0,1,1,0-26h6.3a13,13,0,1,1,0,26Z"/><path d="M327.019,344h-6.3a29,29,0,1,0,0,58h6.3a29,29,0,1,0,0-58Zm0,42h-6.3a13,13,0,1,1,0-26h6.3a13,13,0,1,1,0,26Z"/><path d="M267,352a8,8,0,0,0-8-8H148a8,8,0,0,0-8,8v41a8,8,0,0,0,8,8H259a8,8,0,0,0,8-8Zm-16,33H156V360h95Z"/><path d="M490,48a8,8,0,0,0,0-16H468V27.377c0-4.418-3.2-8.377-7.624-8.377h-39c-17.133,0-31.339,13-33.66,30h-271.1a57.5,57.5,0,0,0,0,115h307.5A41.62,41.62,0,0,1,466,205.623v122C466,350.781,447.284,370,424.125,370H394V341.736a46.9,46.9,0,0,0-14.531-33.7l-8.308-8.818-29.1-78.339A33.788,33.788,0,0,0,310.4,199H102.639a33.749,33.749,0,0,0-31.628,21.882L42.3,298.3,30.366,309.31A46.509,46.509,0,0,0,14,344.684V484.623A8.438,8.438,0,0,0,22.125,493h72.9c4.418,0,7.975-3.959,7.975-8.377V442H305v42.623c0,4.418,3.449,8.377,7.868,8.377h72.9A8.531,8.531,0,0,0,394,484.623V386h30.125C456.106,386,482,359.6,482,327.623v-122A57.638,57.638,0,0,0,424.125,148h-307.5a41.5,41.5,0,0,1,0-83h271.1a34.279,34.279,0,0,0,33.66,29h39C464.8,94,468,90.286,468,85.868V81h22a8,8,0,0,0,0-16H468V48ZM86.014,226.541A17.775,17.775,0,0,1,102.639,215H310.4a17.775,17.775,0,0,1,16.625,11.541L352.4,295H60.637ZM87,477H30V442H87Zm234,0V442h57v35Zm57-51H30V344.684a30.6,30.6,0,0,1,10.863-23.329c.093-.079.214-.06.3-.142L52.286,311h307.74l7.806,8.242c.112.121.345.188.464.3a30.718,30.718,0,0,1,9.7,22.193V426ZM403,59.868V53.377A18.675,18.675,0,0,1,421.38,35H432V78H421.38A18.462,18.462,0,0,1,403,59.868ZM452,78h-4V35h4Z"/></svg>
