<?xml version="1.0"?>
<svg xmlns="http://www.w3.org/2000/svg" id="Layer_1" data-name="Layer 1" viewBox="0 0 512 512" width="512" height="512"><title>Charging</title><path d="M448.937,43H270.664A47.559,47.559,0,0,0,223,90.754V226H201.309C169.328,226,143,252.515,143,284.5V352a41.5,41.5,0,0,1-83,0V200.9c17-2.32,30-16.527,30-33.66v-39A8.6,8.6,0,0,0,81.554,120H77V98a8,8,0,0,0-16,0v22H44V98a8,8,0,0,0-16,0v22H23.063A8.266,8.266,0,0,0,15,128.245v39A34.279,34.279,0,0,0,44,200.9V352a57.5,57.5,0,0,0,115,0V284.5c0-23.159,19.15-42.5,42.309-42.5H223V461.246A7.512,7.512,0,0,0,230.664,469H488.937A7.848,7.848,0,0,0,497,461.246V90.754A47.9,47.9,0,0,0,448.937,43ZM31,136H74v4H31Zm0,31.241V156H74v11.241C74,177.166,65.479,185,55.554,185H49.063A17.87,17.87,0,0,1,31,167.241ZM270.664,59H448.937A31.881,31.881,0,0,1,481,90.754V398H239V90.754A31.541,31.541,0,0,1,270.664,59ZM239,453V414H481v39Z"/><path d="M270.227,222H451.875c4.419,0,8.125-3.118,8.125-7.536V122.336A28.427,28.427,0,0,0,431.875,94H290.227A28.515,28.515,0,0,0,262,122.336v92.128C262,218.882,265.809,222,270.227,222ZM278,122.336A12.5,12.5,0,0,1,290.227,110H431.875A12.412,12.412,0,0,1,444,122.336V206H278Z"/><path d="M394.492,284h-15.6l9.511-22.86A8.068,8.068,0,0,0,381.01,250H331.18a8.118,8.118,0,0,0-7.966,7.391l-6.071,65.153a7.682,7.682,0,0,0,2.052,5.987A7.865,7.865,0,0,0,325.108,331h14.13l-2.449,42.089a8.168,8.168,0,0,0,7.986,8.6,7.98,7.98,0,0,0,6.827-3.808l49.717-81.361a8.326,8.326,0,0,0,.151-8.259A8.168,8.168,0,0,0,394.492,284Zm-39.864,58.082,1.078-18.351a8.3,8.3,0,0,0-2.167-6.088A8.128,8.128,0,0,0,347.72,315H333.889l4.579-49h30.584l-9.511,23.174a7.776,7.776,0,0,0,.746,7.388A7.894,7.894,0,0,0,366.936,300h13.293Z"/></svg>
