<?xml version="1.0"?>
<svg xmlns="http://www.w3.org/2000/svg" id="Layer_1" data-name="Layer 1" viewBox="0 0 512 512" width="512" height="512"><title>Checklist</title><path d="M394.744,77H349V48.985A7.687,7.687,0,0,0,341.36,41H301.8c-6.881-18-25.279-31-46.043-31H255.6a48.579,48.579,0,0,0-45.763,31h-39.2A7.687,7.687,0,0,0,163,48.985V77H117.256C91.926,77,71,96.94,71,121.284V457.851C71,482.2,91.926,502,117.256,502H394.744C420.074,502,441,482.2,441,457.851V121.284C441,96.94,420.074,77,394.744,77ZM179,57h36.623a8.007,8.007,0,0,0,7.747-6.012A33.273,33.273,0,0,1,255.625,26h.1c15.619,0,29.2,10.385,32.287,24.682A8,8,0,0,0,295.835,57H333v54H179ZM425,457.851C425,473.373,411.252,486,394.744,486H117.256C100.748,486,87,473.373,87,457.851V121.284C87,105.763,100.748,93,117.256,93H163v25.7c0,4.419,3.222,8.3,7.64,8.3H341.36c4.418,0,7.64-3.881,7.64-8.3V93h45.744C411.252,93,425,105.763,425,121.284Z"/><path d="M329.744,399a8,8,0,0,0,0-16H182.256a8,8,0,1,0,0,16Z"/><path d="M359.744,429H152.256a8,8,0,1,0,0,16H359.744a8,8,0,0,0,0-16Z"/><path d="M375.505,221.823l-20.26-54.744A26.243,26.243,0,0,0,330.792,150H184.823a26.239,26.239,0,0,0-24.452,17.079L140.4,221.02l-8.019,7.354A35.212,35.212,0,0,0,120,255.04v98.319c0,4.418,3.837,7.641,8.255,7.641h51.219A7.308,7.308,0,0,0,187,353.359V326H325v27.359A7.308,7.308,0,0,0,332.526,361h51.219c4.418,0,8.255-3.223,8.255-7.641V252.969a35.381,35.381,0,0,0-10.942-25.348ZM175.374,172.831A10.357,10.357,0,0,1,184.823,166H330.792a10.358,10.358,0,0,1,9.45,6.832L356.883,218H158.732ZM171,345H136V324.081A26.785,26.785,0,0,0,146.333,326H171Zm170,0V326h24.667A26.785,26.785,0,0,0,376,324.081V345Zm35-44.969A10.218,10.218,0,0,1,365.667,310H146.333A10.218,10.218,0,0,1,136,300.031V255.04a19.21,19.21,0,0,1,6.876-14.577c.093-.078.247.035.336-.048L150.381,234H364.627l4.779,4.914c.112.121.356.141.476.254a19.1,19.1,0,0,1,6.118,13.8v47.062Z"/><path d="M173.958,252h-4.427a22.5,22.5,0,1,0,0,45h4.427a22.5,22.5,0,1,0,0-45Zm0,29h-4.427a6.505,6.505,0,1,1,0-13h4.427a6.505,6.505,0,1,1,0,13Z"/><path d="M342.469,252h-4.427a22.5,22.5,0,1,0,0,45h4.427a22.5,22.5,0,1,0,0-45Zm0,29h-4.427a6.505,6.505,0,1,1,0-13h4.427a6.505,6.505,0,1,1,0,13Z"/><path d="M303,260a8,8,0,0,0-8-8H217a8,8,0,0,0-8,8v29a8,8,0,0,0,8,8h78a8,8,0,0,0,8-8Zm-16,21H225V268h62Z"/></svg>
