<?xml version="1.0"?>
<svg xmlns="http://www.w3.org/2000/svg" id="Layer_1" data-name="Layer 1" viewBox="0 0 512 512" width="512" height="512"><title>Front Glass</title><path d="M491.826,173.072a885.881,885.881,0,0,0-471.652,0,8,8,0,0,0-5.791,8.834L40.208,364.039A8.073,8.073,0,0,0,48.128,371H242.3c.312,0,.624.075.942.075s.66-.075.992-.075H463.872a8.073,8.073,0,0,0,7.92-6.961l25.824-182.09A8.047,8.047,0,0,0,491.826,173.072ZM239.6,324.726l12.084-3.756L262.371,355H249.093ZM456.926,355H279.143l-14.591-46.5a8.012,8.012,0,0,0-10.031-5.3l-6.041,1.888L208.6,178.2a8,8,0,1,0-15.264,4.794l39.884,126.884-6.042,1.9a8.092,8.092,0,0,0-5.233,10.115L232.321,355H55.074L31.217,186.735a869.829,869.829,0,0,1,449.566.042Z"/></svg>
