<?xml version="1.0"?>
<svg xmlns="http://www.w3.org/2000/svg" id="Layer_1" data-name="Layer 1" viewBox="0 0 512 512" width="512" height="512"><title>Garage</title><path d="M473.03,60H38.97A7.711,7.711,0,0,0,31,67.685v57.429A7.877,7.877,0,0,0,38.97,133h63.511L227.875,256,102.481,379H38.97A7.877,7.877,0,0,0,31,386.886v57.429A7.711,7.711,0,0,0,38.97,452H473.03a7.711,7.711,0,0,0,7.97-7.685V386.886A7.877,7.877,0,0,0,473.03,379H409.519L284.125,256,409.519,133H473.03a7.877,7.877,0,0,0,7.97-7.886V67.685A7.711,7.711,0,0,0,473.03,60ZM125.341,133h10.53l108.7,106.582-5.264,5.131ZM256,228.324,158.731,133H353.269ZM465,436H47V395H465ZM256,283.677,353.269,379H158.731ZM386.659,379h-10.53L267.43,272.418l5.265-5.131Zm-250.788,0h-10.53L376.129,133h10.53ZM465,117H47V76H465Z"/></svg>
