<?xml version="1.0"?>
<svg xmlns="http://www.w3.org/2000/svg" id="Layer_1" data-name="Layer 1" viewBox="0 0 512 512" width="512" height="512"><title>Hand</title><path d="M351.49,303H339V274.375l8.337-.375h.027A7.361,7.361,0,0,0,355,266.4v-30a7.857,7.857,0,0,0-7.8-8L303,228.25V95h12.685a7.657,7.657,0,0,0,7.92-8.792l-9.172-64.262A8.068,8.068,0,0,0,306.514,15H281.629a8.12,8.12,0,0,0-7.92,7l-9.171,64.251a7.582,7.582,0,0,0,1.876,6.181A7.823,7.823,0,0,0,272.458,95H287V228.2l-49.192-.169a7.681,7.681,0,0,0-5.565,2.333A7.9,7.9,0,0,0,230,236.026v30c0,2.424.876,4.974,2.579,5.974H196.8c-36.529,0-65.8,29.8-65.8,66.334v92.147C131,467.011,160.267,497,196.8,497H329.05c11.868,0,25.665-13.223,25.665-30.1a29.776,29.776,0,0,0-6.192-18.051,31.665,31.665,0,0,0,15.264-26.93,29.707,29.707,0,0,0-6.848-18.83,30.331,30.331,0,0,0,15.442-26.075,29.621,29.621,0,0,0-6.439-18.3,30.034,30.034,0,0,0,15.51-25.929C381.452,316.544,367.731,303,351.49,303ZM288.567,31h11.009l6.885,48H281.682ZM323,303H265V274.12l58,.2Zm-77-58.947,93,.322v14l-93-.322ZM329.05,481H196.8c-27.707,0-49.8-22.811-49.8-50.519V338.334C147,310.627,169.089,288,196.8,288H249v22.642A8.3,8.3,0,0,0,256.988,319h94.5a14,14,0,0,1,0,28H339.076a8,8,0,0,0,0,16h.641c.845,0,1.752.261,2.7.261a13.87,13.87,0,1,1,0,27.739H330.005a8,8,0,0,0,0,16h.029c1.128,1,2.418.94,3.79.94a14.208,14.208,0,0,1,13.963,14.03c0,8.324-7.256,14.03-9.666,14.03H321.41a7.937,7.937,0,0,0-.494,15.863,7.947,7.947,0,0,0,3.837.961,14.259,14.259,0,0,1,13.962,14.088C338.715,474.831,331.853,481,329.05,481Z"/></svg>
