<?xml version="1.0"?>
<svg xmlns="http://www.w3.org/2000/svg" id="Layer_1" data-name="Layer 1" viewBox="0 0 512 512" width="512" height="512"><title>Ignition</title><path d="M330.6,264H308V97.429a27.8,27.8,0,0,0-28-27.994V23.651A7.311,7.311,0,0,0,272.48,16H241.832A7.567,7.567,0,0,0,234,23.651V69h-2.237C216.323,69,204,81.99,204,97.429V264H181.4c-4.418,0-8.4,3.308-8.4,7.726v42.985A8.605,8.605,0,0,0,181.4,323H198v31.741c0,4.418,3.273,8.259,7.691,8.259H219v79.312A7.333,7.333,0,0,0,226.509,450H247v9a8,8,0,0,0,16,0v-9h14v28.349c0,1.1-.406,1.651-1.509,1.651H255.5a8,8,0,0,0,0,16h19.991A17.311,17.311,0,0,0,293,478.349V363h13.309c4.418,0,7.691-3.841,7.691-8.259V323h16.6a8.605,8.605,0,0,0,8.4-8.289V271.726C339,267.308,335.014,264,330.6,264ZM235,434V404h42v30Zm42-46H235V363h42Zm21-41H214V323h84ZM250,32h14V69H250ZM220,97.429C220,90.812,225.146,85,231.763,85h48.474C286.854,85,292,90.812,292,97.429V264H220ZM323,307H189V280H323Z"/></svg>
