<?xml version="1.0"?>
<svg xmlns="http://www.w3.org/2000/svg" id="Layer_1" data-name="Layer 1" viewBox="0 0 512 512" width="512" height="512"><title>Key</title><path d="M377.374,389.062,317.536,288.136A8.213,8.213,0,0,0,310.659,284H303V41.429a8.114,8.114,0,0,0-3.024-6.168L271.522,11.807a8.041,8.041,0,0,0-10.411.164L208.718,58.1a8,8,0,0,0-1.227,10.657L227,96.035l-19.4,25.8a8.005,8.005,0,0,0,.882,10.566L229,152.152v18.729l-8.58,17.074a7.136,7.136,0,0,0-.865,3.435l.9,92.61h-14.2a8.215,8.215,0,0,0-6.737,3.908L135.271,388.364c-.114.177-.221.415-.32.6a44.7,44.7,0,0,0-.657,40.7l24.852,50.4A39.078,39.078,0,0,0,194.412,502h122.87a39.066,39.066,0,0,0,35.267-21.918l25.157-51.011a44.8,44.8,0,0,0-.042-39.479C377.574,389.411,377.477,389.236,377.374,389.062Zm-141.822-195.9,8.561-16.925a7.594,7.594,0,0,0,.887-3.467V148.753A8.04,8.04,0,0,0,242.511,143l-17.853-17.2L243.32,100.96a8,8,0,0,0,.107-9.461L224.706,65.328l41.948-36.839L287,45.2V284H236.457ZM363.355,422,338.2,473.006A23.163,23.163,0,0,1,317.282,486H194.412A23.164,23.164,0,0,1,173.5,473.006l-24.851-50.392a29.061,29.061,0,0,1,.282-26.02L210.633,300h95.474l57.347,96.735A29.2,29.2,0,0,1,363.355,422Z"/><path d="M262.59,369H249.41c-24.859,0-45.083,20.641-45.083,45.5S224.551,460,249.41,460h13.18c24.859,0,45.083-20.641,45.083-45.5S287.449,369,262.59,369Zm0,75H249.41c-16.037,0-29.083-13.463-29.083-29.5S233.373,385,249.41,385h13.18c16.037,0,29.083,13.463,29.083,29.5S278.627,444,262.59,444Z"/></svg>
