<?xml version="1.0"?>
<svg xmlns="http://www.w3.org/2000/svg" id="Layer_1" data-name="Layer 1" viewBox="0 0 512 512" width="512" height="512"><title>Lift</title><path d="M134.957,236h6.2a28.5,28.5,0,1,0,0-57h-6.2a28.5,28.5,0,1,0,0,57Zm0-41h6.2a12.5,12.5,0,1,1,0,25h-6.2a12.5,12.5,0,1,1,0-25Z"/><path d="M370.847,236h6.2a28.5,28.5,0,1,0,0-57h-6.2a28.5,28.5,0,1,0,0,57Zm0-41h6.2a12.5,12.5,0,1,1,0,25h-6.2a12.5,12.5,0,1,1,0-25Z"/><path d="M318,187a8,8,0,0,0-8-8H201a8,8,0,0,0-8,8v40a8,8,0,0,0,8,8H310a8,8,0,0,0,8-8Zm-109,8h94v24H209Z"/><path d="M494,320H442.345a8.143,8.143,0,0,0,.655-2.7V176.766a46.234,46.234,0,0,0-14.3-33.233l-8.139-8.651L391.951,57.733A33.469,33.469,0,0,0,360.7,36H156.362a33.44,33.44,0,0,0-31.23,21.733L96.906,133.91,85.167,144.745A45.963,45.963,0,0,0,69,179.665V317.3a8.118,8.118,0,0,0,.655,2.7H18a8,8,0,0,0-8,8V468a8,8,0,0,0,8,8H50a8,8,0,0,0,8-8V368H158a8,8,0,0,0,8-8V328a8,8,0,0,0-8-8h-1.6a8.042,8.042,0,0,0,.6-2.7V276H355v41.3a8.066,8.066,0,0,0,.6,2.7H354a8,8,0,0,0-8,8v32a8,8,0,0,0,8,8H454V468a8,8,0,0,0,8,8h32a8,8,0,0,0,8-8V328A8,8,0,0,0,494,320ZM150,352H50a8,8,0,0,0-8,8V460H26V336H150ZM140.136,63.056A17.161,17.161,0,0,1,156.362,52H360.7a17.16,17.16,0,0,1,16.227,11.056L401.818,130H115.243ZM85,179.665a29.993,29.993,0,0,1,10.664-22.844c.092-.078.227-.4.316-.478L106.893,146H409.449l7.638,8.4c.112.121.317.355.437.469a30.427,30.427,0,0,1,9.476,21.9V260H85V179.665ZM141,309H85V276h56Zm286-33v33H371V276Zm59,184H470V360a8,8,0,0,0-8-8H362V336H486Z"/></svg>
