<?xml version="1.0"?>
<svg xmlns="http://www.w3.org/2000/svg" id="Layer_1" data-name="Layer 1" viewBox="0 0 512 512" width="512" height="512"><title>Location</title><path d="M337.285,140.955A22.855,22.855,0,0,0,316.15,126H198.757a22.86,22.86,0,0,0-21.135,14.954l-15.935,43.13-6.181,5.688A30.012,30.012,0,0,0,145,212.435v79.071A8.663,8.663,0,0,0,153.263,300h41.192c4.418,0,7.545-4.075,7.545-8.494V271H310v20.506c0,4.419,3.127,8.494,7.545,8.494h41.192A8.663,8.663,0,0,0,367,291.506V210.77a30.054,30.054,0,0,0-9.279-21.487l-4.185-4.525Zm-144.66,5.674A6.915,6.915,0,0,1,198.757,142H316.15a6.911,6.911,0,0,1,6.131,4.629L334.883,181H180.024ZM186,284H161V271h25Zm140,0V271h25v13Zm25-29H161V212.435a13.91,13.91,0,0,1,5.006-10.528c.093-.079.25-.044.338-.127l5.33-4.78H342.683l3.379,3.5c.113.12.359.178.48.292A13.862,13.862,0,0,1,351,210.77V255Z"/><path d="M190.019,208h-3.56a20,20,0,0,0,0,40h3.56a20,20,0,0,0,0-40Zm0,24h-3.56a4,4,0,0,1,0-8h3.56a4,4,0,0,1,0,8Z"/><path d="M325.541,208h-3.56a20,20,0,0,0,0,40h3.56a20,20,0,0,0,0-40Zm0,24h-3.56a4,4,0,0,1,0-8h3.56a4,4,0,0,1,0,8Z"/><path d="M296,217a8,8,0,0,0-8-8H225a8,8,0,0,0-8,8v23a8,8,0,0,0,8,8h63a8,8,0,0,0,8-8Zm-17,15H233v-7h46Z"/><path d="M256,9.677c-116.861,0-211.935,91.049-211.935,202.964,0,35.921,11.076,73.539,32.917,111.811,17.261,30.246,41.272,61,71.365,91.4,51.023,51.547,101.231,83.863,103.344,85.213a8,8,0,0,0,8.618,0c2.113-1.35,52.321-33.666,103.344-85.213,30.093-30.4,54.1-61.152,71.365-91.4,21.841-38.272,32.917-75.89,32.917-111.811C467.935,100.726,372.861,9.677,256,9.677Zm165.2,306.7c-16.532,29-39.646,58.609-68.7,87.994A677.751,677.751,0,0,1,256,484.72a677.751,677.751,0,0,1-96.5-80.347c-29.056-29.385-52.17-58.991-68.7-87.994C70.405,280.6,60.065,245.7,60.065,212.641c0-103.092,87.9-186.964,195.935-186.964s195.935,83.872,195.935,186.964C451.935,245.7,441.6,280.6,421.2,316.379Z"/><path d="M256,61.121c-86.511,0-156.893,70.382-156.893,156.893S169.489,374.907,256,374.907s156.893-70.382,156.893-156.893S342.511,61.121,256,61.121Zm0,297.786c-77.688,0-140.893-63.2-140.893-140.893S178.312,77.121,256,77.121s140.893,63.205,140.893,140.893S333.688,358.907,256,358.907Z"/></svg>
