<?xml version="1.0"?>
<svg xmlns="http://www.w3.org/2000/svg" id="Layer_1" data-name="Layer 1" viewBox="0 0 512 512" width="512" height="512"><title>Maintenance</title><path d="M232.363,320.177a38.189,38.189,0,1,0,38.189,38.189A38.232,38.232,0,0,0,232.363,320.177Zm0,60.377a22.189,22.189,0,1,1,22.189-22.188A22.213,22.213,0,0,1,232.363,380.554Z"/><path d="M481,199.315V89.606c0-4.418-4.054-7.606-8.472-7.606H360.919a71.452,71.452,0,0,0-56.674,27.88l-61.363,80.477L97.894,93.478A8.137,8.137,0,0,0,93.453,92H51.83a21,21,0,0,0,0,42h8.476L79.87,238.107A96.242,96.242,0,0,0,50,307.81V363.9a7.925,7.925,0,0,0,7.807,8.1H161.628c6.352,33,35.645,58.5,70.735,58.5S296.745,405,303.1,372h169.43c4.418,0,8.472-3.683,8.472-8.1V204.685c0-.84.472-1.742.472-2.685S481,200.155,481,199.315ZM316.974,119.574A55.362,55.362,0,0,1,360.919,98H465v96H260.145ZM47.065,113a4.978,4.978,0,0,1,4.765-5h39.2l132.244,88.326-13.1,2.372L90.156,119.163A7.846,7.846,0,0,0,85.73,118H51.83A4.978,4.978,0,0,1,47.065,113Zm29.517,21h6.734l104.05,68.95-65.733,11.618c-.238.043-.474.058-.707.121a96.324,96.324,0,0,0-26.968,12.232ZM232.363,414.394a56.1,56.1,0,0,1-55.7-50.025c.009-.156.024-.311.024-.47a8.051,8.051,0,0,0-.212-1.8c-.081-1.235-.138-2.476-.138-3.73a56.028,56.028,0,1,1,56.028,56.028ZM304.328,356A72.007,72.007,0,0,0,160.4,356H66V307.81a80.667,80.667,0,0,1,58.9-77.63l117-20.825A7.735,7.735,0,0,0,245,210H465V356Z"/><path d="M427,248H389a8,8,0,0,0,0,16h38a8,8,0,0,0,0-16Z"/></svg>
