<?xml version="1.0"?>
<svg xmlns="http://www.w3.org/2000/svg" id="Layer_1" data-name="Layer 1" viewBox="0 0 512 512" width="512" height="512"><title>Piston</title><path d="M331.156,18H180.844C176.426,18,173,22.073,173,26.491V275.126A7.761,7.761,0,0,0,180.844,283h22.962a8.057,8.057,0,0,0,7.155-4.483L219.188,262H248V381.353a56.367,56.367,0,1,0,16,0V262h28.812l8.227,16.517A8.057,8.057,0,0,0,308.194,283h22.962A7.761,7.761,0,0,0,339,275.126V26.491C339,22.073,335.574,18,331.156,18ZM296.367,437.142A40.367,40.367,0,1,1,256,396.775,40.413,40.413,0,0,1,296.367,437.142ZM189,76H323v26H189ZM323,34V60H189V34Zm-9.861,233-8.228-16.517A8.055,8.055,0,0,0,297.756,246H214.244a8.055,8.055,0,0,0-7.155,4.483L198.861,267H189V118H323V267Z"/><path d="M256,149.731a35.4,35.4,0,1,0,35.4,35.4A35.44,35.44,0,0,0,256,149.731Zm0,54.8a19.4,19.4,0,1,1,19.4-19.4A19.422,19.422,0,0,1,256,204.533Z"/></svg>
