<?xml version="1.0"?>
<svg xmlns="http://www.w3.org/2000/svg" id="Layer_1" data-name="Layer 1" viewBox="0 0 512 512" width="512" height="512"><title>Speedometer</title><path d="M256,80.471A242.891,242.891,0,0,0,35.867,426.119,8.176,8.176,0,0,0,43.35,431h425.3a8.176,8.176,0,0,0,7.483-4.881A242.944,242.944,0,0,0,256,80.471ZM100.14,415a180.174,180.174,0,0,1-24.98-91.647c0-99.684,81.124-180.782,180.84-180.782s180.84,81.151,180.84,180.9A179.938,179.938,0,0,1,411.861,415Zm363.479,0H430.182a195.951,195.951,0,0,0,22.658-91.53c0-108.57-88.3-196.9-196.84-196.9A196.756,196.756,0,0,0,81.821,415H48.382A226.9,226.9,0,0,1,256,96.471c125.136,0,226.94,101.832,226.94,227A224.278,224.278,0,0,1,463.619,415Z"/><path d="M256,190a8,8,0,0,0,8-8V154a8,8,0,0,0-16,0v28A8,8,0,0,0,256,190Z"/><path d="M425,315H397a8,8,0,0,0,0,16h28a8,8,0,0,0,0-16Z"/><path d="M115,315H87a8,8,0,0,0,0,16h28a8,8,0,0,0,0-16Z"/><path d="M369.844,198.312l-19.8,19.8a8,8,0,0,0,11.314,11.314l19.8-19.8a8,8,0,0,0-11.314-11.313Z"/><path d="M142.156,198.312a8,8,0,0,0-11.314,11.313l19.8,19.8a8,8,0,0,0,11.314-11.314Z"/><path d="M256,294.97a28.6,28.6,0,0,0-2.926.15L212.386,197.4a8,8,0,0,0-14.772,6.15l40.654,97.638A28.477,28.477,0,1,0,256,294.97Zm0,41a12.5,12.5,0,1,1,12.5-12.5A12.514,12.514,0,0,1,256,335.97Z"/></svg>
