<?xml version="1.0"?>
<svg xmlns="http://www.w3.org/2000/svg" id="Layer_1" data-name="Layer 1" viewBox="0 0 512 512" width="512" height="512"><title>Steering</title><path d="M452.918,230.8C440.5,133.193,356.923,57.489,256,57.489,146.541,57.489,57.489,146.541,57.489,256S146.541,454.511,256,454.511c100.923,0,184.5-75.7,196.918-173.308a8.029,8.029,0,0,0,.229-1.872c0-.03,0-.059,0-.089a198.122,198.122,0,0,0,0-46.484c0-.03,0-.059,0-.089A8.029,8.029,0,0,0,452.918,230.8ZM317,241H437.861c.422,5,.65,9.836.65,15s-.228,10-.65,15H317ZM256,73.819C345.956,73.819,420.911,139,435.811,225H317.267a31.018,31.018,0,0,0-30.824-31H225.557a31.018,31.018,0,0,0-30.824,31H76.189C91.089,139,166.044,73.819,256,73.819Zm46,213.357A14.824,14.824,0,0,1,287.177,302H225.823A14.824,14.824,0,0,1,211,287.176V224.824A14.824,14.824,0,0,1,225.823,210h61.354A14.824,14.824,0,0,1,302,224.824ZM74.139,271c-.422-5-.65-9.836-.65-15s.228-10,.65-15H195v30Zm2.05,16H194.733A30.941,30.941,0,0,0,225,318.115v117.7A182.715,182.715,0,0,1,76.189,287ZM241,437.862V318h30V437.862c-5,.422-9.837.649-15,.649S246,438.284,241,437.862Zm46-2.051v-117.7A30.941,30.941,0,0,0,317.267,287H435.811A182.715,182.715,0,0,1,287,435.811Z"/><path d="M256,20.239A235.761,235.761,0,0,0,89.292,422.708,235.761,235.761,0,1,0,422.708,89.292,234.214,234.214,0,0,0,256,20.239ZM411.4,411.4a219.762,219.762,0,0,1-310.79-310.79A219.762,219.762,0,0,1,411.4,411.4Z"/></svg>
