<?xml version="1.0"?>
<svg xmlns="http://www.w3.org/2000/svg" id="Layer_1" data-name="Layer 1" viewBox="0 0 512 512" width="512" height="512"><title>Tire</title><path d="M225.266,225.267a43.464,43.464,0,1,0,61.468,0A43.511,43.511,0,0,0,225.266,225.267ZM275.42,275.42a27.451,27.451,0,1,1,0-38.84A27.5,27.5,0,0,1,275.42,275.42Z"/><path d="M159.225,159.225c-53.362,53.362-53.362,140.188,0,193.55a137.014,137.014,0,0,0,193.55,0c53.362-53.362,53.362-140.188,0-193.55S212.588,105.862,159.225,159.225ZM288.7,139.678a120.273,120.273,0,0,1,20.242,7.671l-20.508,20.508Zm-69.9,1.341-.3,29.169-20.323-20.324A120.062,120.062,0,0,1,218.8,141.019Zm-70.644,60.41,18.951,18.965-26.448-.427A120.252,120.252,0,0,1,148.158,201.429Zm-8.411,87.514,28.007-.409L147.348,308.94A120.185,120.185,0,0,1,139.747,288.943Zm79.022,82.026a120.018,120.018,0,0,1-22.181-9.711L218.8,339.045Zm69.765-29.19,22.054,22.054a120.265,120.265,0,0,1-21.609,8.411Zm52.927-.317A121.1,121.1,0,0,1,324.777,355.4L285.9,316.521a8,8,0,0,0-13.656,5.774l.778,53.311a121.865,121.865,0,0,1-38.261-.674l.055-55.212a8,8,0,0,0-13.657-5.665l-38.224,38.224a121.045,121.045,0,0,1-27.33-28.973l37.4-37.4a8,8,0,0,0-5.775-13.656l-50.848.744a121.863,121.863,0,0,1,.46-36.986l49.775,1h.139a8.141,8.141,0,0,0,7.363-5.025,8.244,8.244,0,0,0-1.707-8.932L156.6,187.229a121.491,121.491,0,0,1,27.744-28.569l36.3,36.3a8,8,0,0,0,13.657-5.573l.542-52.334a121.289,121.289,0,0,1,37.883-.7l-.482,50.925a8,8,0,0,0,13.657,5.732l37.4-37.4a121.027,121.027,0,0,1,28.971,27.33l-38.223,38.225a8,8,0,0,0,5.608,13.656l55.34.34a121.863,121.863,0,0,1,.423,39.066l-55.784.488a8,8,0,0,0-5.587,13.656l39.284,39.284A121.261,121.261,0,0,1,341.461,341.462Zm19.8-144.874a120.1,120.1,0,0,1,9.824,22.547l-32.174-.2Zm10.624,93.67a120.207,120.207,0,0,1-9.746,23.565l-23.278-23.277Z"/><path d="M256,36.038A219.961,219.961,0,0,0,36.038,256c0,.066,0,.132,0,.2-.026.264-.041.531-.041.8a7.86,7.86,0,0,0,.062.952A218.431,218.431,0,0,0,99.047,410.085a7.755,7.755,0,0,0,2.867,2.868,218.435,218.435,0,0,0,152.134,62.985A8.068,8.068,0,0,0,255,476a7.873,7.873,0,0,0,.8-.041l.2,0a219.963,219.963,0,0,0,155.537-375.5A218.525,218.525,0,0,0,256,36.038ZM442,265h17.662a203.173,203.173,0,0,1-54.385,129.964l-12.245-12.245a8,8,0,1,0-11.314,11.313l12.208,12.208A203.205,203.205,0,0,1,263,459.733V443a8,8,0,0,0-16,0v16.662a203.178,203.178,0,0,1-129.444-53.9l11.726-11.727a8,8,0,0,0-11.314-11.313l-11.727,11.726A203.177,203.177,0,0,1,52.338,265H69a8,8,0,0,0,0-16H52.267a203.2,203.2,0,0,1,53.494-130.926l12.207,12.207a8,8,0,1,0,11.314-11.313l-12.246-12.246A203.171,203.171,0,0,1,247,52.339V70a8,8,0,0,0,16,0V52.267a203.2,203.2,0,0,1,131.444,53.974l-12.726,12.727a8,8,0,1,0,11.314,11.313l12.727-12.726A203.2,203.2,0,0,1,459.733,249H442a8,8,0,0,0,0,16Z"/></svg>
