<?xml version="1.0"?>
<svg xmlns="http://www.w3.org/2000/svg" id="Layer_1" data-name="Layer 1" viewBox="0 0 512 512" width="512" height="512"><title>Tool2</title><path d="M481,215H427.05a8,8,0,0,0-3.637.875L401.616,227H285V110.384l11.125-21.8A8,8,0,0,0,297,84.95V31a8,8,0,0,0-8-8H223a8,8,0,0,0-8,8V84.95a8,8,0,0,0,.875,3.637L227,110.384V227H110.384l-21.8-11.125A8,8,0,0,0,84.95,215H31a8,8,0,0,0-8,8v66a8,8,0,0,0,8,8H84.95a8,8,0,0,0,3.637-.875L110.384,285H227V401.616l-11.125,21.8A8,8,0,0,0,215,427.05V481a8,8,0,0,0,8,8h66a8,8,0,0,0,8-8V427.05a8,8,0,0,0-.875-3.637L285,401.616V285H401.616l21.8,11.125a8,8,0,0,0,3.637.875H481a8,8,0,0,0,8-8V223A8,8,0,0,0,481,215Zm-8,66H428.974l-21.8-11.125A8,8,0,0,0,403.54,269H277a8,8,0,0,0-8,8V403.54a8,8,0,0,0,.875,3.637L281,428.974V473H231V428.974l11.125-21.8A8,8,0,0,0,243,403.54V277a8,8,0,0,0-8-8H108.46a8,8,0,0,0-3.637.875L83.026,281H39V231H83.026l21.8,11.125a8,8,0,0,0,3.637.875H235a8,8,0,0,0,8-8V108.46a8,8,0,0,0-.875-3.637L231,83.026V39h50V83.026l-11.125,21.8A8,8,0,0,0,269,108.46V235a8,8,0,0,0,8,8H403.54a8,8,0,0,0,3.637-.875L428.974,231H473Z"/></svg>
