<?xml version="1.0"?>
<svg xmlns="http://www.w3.org/2000/svg" id="Layer_1" data-name="Layer 1" viewBox="0 0 512 512" width="512" height="512"><title>Tools</title><path d="M313.871,13.771A7.87,7.87,0,0,0,301,19.972V82H214V18.326a7.812,7.812,0,0,0-12.21-6.651c-25.837,17.275-40.8,45.529-40.8,77.519A96.534,96.534,0,0,0,200,166.405V446.524c0,30.41,25.09,55.15,55.5,55.15s55.5-24.74,55.5-55.15V166.589a95.054,95.054,0,0,0,39.953-77.395C350.953,60.812,336.986,32.617,313.871,13.771ZM299.224,155.149A7.917,7.917,0,0,0,295,162.267V446.524c0,21.587-17.912,39.15-39.5,39.15S216,468.111,216,446.524V162.21a7.834,7.834,0,0,0-3.424-6.686A79.5,79.5,0,0,1,198,35.367V89.819A8.429,8.429,0,0,0,206.314,98h102.5A8.315,8.315,0,0,0,317,89.819V39.4c11,14.412,17.961,32.087,17.961,49.8A78.817,78.817,0,0,1,299.224,155.149Z"/><path d="M256,402.648a27.476,27.476,0,1,0,27.476,27.476A27.508,27.508,0,0,0,256,402.648Zm0,38.951a11.476,11.476,0,1,1,11.476-11.475A11.489,11.489,0,0,1,256,441.6Z"/></svg>
