<?xml version="1.0"?>
<svg xmlns="http://www.w3.org/2000/svg" id="Layer_1" data-name="Layer 1" viewBox="0 0 512 512" width="512" height="512"><title>Wash</title><path d="M394.371,291.14,370.62,227.018A29.246,29.246,0,0,0,343.327,208H172.9A29.246,29.246,0,0,0,145.6,227.018l-23.433,63.254-9.39,8.81A39.529,39.529,0,0,0,99,329.2V444a7.871,7.871,0,0,0,7.847,8h59.8A8.308,8.308,0,0,0,175,444V411H337v33a8.308,8.308,0,0,0,8.352,8h59.8A7.871,7.871,0,0,0,413,444V326.786a39.745,39.745,0,0,0-12.163-28.653ZM160.6,232.654A13.252,13.252,0,0,1,172.9,224H343.327a13.251,13.251,0,0,1,12.289,8.654L375.717,287H140.505ZM115,329.2a23.545,23.545,0,0,1,8.276-18.041c.093-.079.145-.082.234-.165l8.644-8H383.413l5.977,6.312c.112.12.152.2.273.312A23.592,23.592,0,0,1,397,326.786V395H115V329.2ZM159,436H115V411h44Zm194,0V411h44v25Z"/><path d="M155.04,377h5.169a25,25,0,1,0,0-50H155.04a25,25,0,1,0,0,50Zm0-34h5.169a9,9,0,1,1,0,18H155.04a9,9,0,1,1,0-18Z"/><path d="M351.791,377h5.169a25,25,0,1,0,0-50h-5.169a25,25,0,1,0,0,50Zm0-34h5.169a9,9,0,1,1,0,18h-5.169a9,9,0,1,1,0-18Z"/><path d="M309,335a8,8,0,0,0-8-8H210a8,8,0,0,0-8,8v34a8,8,0,0,0,8,8h91a8,8,0,0,0,8-8Zm-91,8h76v18H218Z"/><path d="M459,82H354V80c0-15.439-12.061-28-27.5-28h-141C170.061,52,157,64.561,157,80v2H53a8,8,0,0,0-8,8V452a8,8,0,0,0,16,0V98h96v16c0,4.418,4.082,8,8.5,8h181c4.418,0,7.5-3.582,7.5-8V98h97V452a8,8,0,0,0,16,0V90A8,8,0,0,0,459,82ZM338,106H173V80c0-6.617,5.883-12,12.5-12h141c6.617,0,11.5,5.383,11.5,12Z"/><path d="M265,130a8,8,0,0,0-8,8v13a8,8,0,0,0,16,0V138A8,8,0,0,0,265,130Z"/><path d="M285,130a8,8,0,0,0-8,8v13a8,8,0,0,0,16,0V138A8,8,0,0,0,285,130Z"/><path d="M305,130a8,8,0,0,0-8,8v13a8,8,0,0,0,16,0V138A8,8,0,0,0,305,130Z"/><path d="M333,151V138a8,8,0,0,0-16,0v13a8,8,0,0,0,16,0Z"/><path d="M185,130a8,8,0,0,0-8,8v13a8,8,0,0,0,16,0V138A8,8,0,0,0,185,130Z"/><path d="M205,130a8,8,0,0,0-8,8v13a8,8,0,0,0,16,0V138A8,8,0,0,0,205,130Z"/><path d="M225,130a8,8,0,0,0-8,8v13a8,8,0,0,0,16,0V138A8,8,0,0,0,225,130Z"/><path d="M245,130a8,8,0,0,0-8,8v13a8,8,0,0,0,16,0V138A8,8,0,0,0,245,130Z"/><path d="M247,173v13a8,8,0,0,0,16,0V173a8,8,0,0,0-16,0Z"/><path d="M267,173v13a8,8,0,0,0,16,0V173a8,8,0,0,0-16,0Z"/><path d="M287,173v13a8,8,0,0,0,16,0V173a8,8,0,0,0-16,0Z"/><path d="M307,173v13a8,8,0,0,0,16,0V173a8,8,0,0,0-16,0Z"/><path d="M187,173v13a8,8,0,0,0,16,0V173a8,8,0,0,0-16,0Z"/><path d="M207,173v13a8,8,0,0,0,16,0V173a8,8,0,0,0-16,0Z"/><path d="M227,173v13a8,8,0,0,0,16,0V173a8,8,0,0,0-16,0Z"/></svg>
