<svg width="59" height="41" viewBox="0 0 59 41" fill="none" xmlns="http://www.w3.org/2000/svg">
<path d="M38.5674 20.5482L58.1819 32.9482V7.62456L38.5674 20.5482Z" fill="#B8B9FF"/>
<path d="M0 7.62456V32.9482L19.6146 20.5482L0 7.62456Z" fill="#B8B9FF"/>
<path d="M54.5455 0.25H3.63633C1.82178 0.25 0.381782 1.60273 0.109054 3.34455L29.0909 22.4391L58.0727 3.34455C57.8 1.60273 56.36 0.25 54.5455 0.25Z" fill="#B8B9FF"/>
<path d="M35.2364 22.7445L30.091 26.1336C29.7855 26.3336 29.4401 26.4318 29.091 26.4318C28.7419 26.4318 28.3964 26.3336 28.091 26.1336L22.9455 22.7409L0.116407 37.1809C0.396407 38.9082 1.82913 40.25 3.63641 40.25H54.5455C56.3528 40.25 57.7855 38.9082 58.0655 37.1809L35.2364 22.7445Z" fill="#B8B9FF"/>
</svg>
